<svg xmlns="http://www.w3.org/2000/svg" viewBox="0 0 512 512"><defs><style>.cls-1{fill:#6fc3e2;}.cls-2{fill:#62acc7;}.cls-3{fill:#ead590;}.cls-4{fill:#a8edfd;}.cls-5{fill:#8bd4de;}</style></defs><title>44. Dance Floor</title><g id="_44._Dance_Floor" data-name="44. Dance Floor"><path class="cls-1" d="M504,504H8c77.8-143.65,27-49.74,104-192H400C477.8,455.65,427,361.74,504,504Z"/><polygon class="cls-2" points="21 480 8 504 504 504 491 480 21 480"/><path d="M504,512H8a8,8,0,0,1-7-11.81l13-24A8,8,0,0,1,28,483.81L21.43,496H490.57L423.3,371.81a8,8,0,1,1,14.06-7.62l73.67,136A8,8,0,0,1,504,512Z"/><path d="M38.32,456a8,8,0,0,1-7-11.81l73.67-136a8,8,0,0,1,7-4.19H400a8,8,0,0,1,7,4.19l13,24A8,8,0,0,1,406,339.81L395.24,320H116.77L45.36,451.81A8,8,0,0,1,38.32,456Z"/><polygon class="cls-3" points="352.67 448 159.33 448 192.67 368 319.33 368 352.67 448"/><path d="M473.67,456H38.33a8,8,0,1,1,0-16H473.67a8,8,0,1,1,0,16Z"/><path d="M430.33,376H81.67a8,8,0,0,1,0-16H430.33a8,8,0,0,1,0,16Z"/><path d="M136,512a8,8,0,0,1-7.38-11.08l80-192a8,8,0,0,1,14.76,6.16l-80,192A8,8,0,0,1,136,512Z"/><path d="M376,512a8,8,0,0,1-7.38-4.92l-80-192a8,8,0,0,1,14.76-6.16l80,192A8,8,0,0,1,376,512Z"/><circle class="cls-4" cx="256" cy="128" r="88"/><path class="cls-5" d="M256,192a88,88,0,0,1-87.18-76,88,88,0,1,0,174.36,0A88,88,0,0,1,256,192Z"/><path d="M256,224a96,96,0,1,1,96-96A96.11,96.11,0,0,1,256,224Zm0-176a80,80,0,1,0,80,80A80.09,80.09,0,0,0,256,48Z"/><path d="M250.67,222c-56.61-50.63-57.28-136.69,0-187.92a8,8,0,0,1,10.66,0c56.61,50.64,57.28,136.69,0,187.92A8,8,0,0,1,250.67,222ZM256,51C213.3,94.23,213.27,161.73,256,205,298.7,161.77,298.73,94.26,256,51Z"/><path d="M256,48a8,8,0,0,1-8-8V8a8,8,0,0,1,16,0V40A8,8,0,0,1,256,48Z"/><path d="M338,168H174a8,8,0,0,1-7.45-5.09,95.73,95.73,0,0,1,0-69.82A8,8,0,0,1,174,88H338a8,8,0,0,1,7.45,5.09,95.73,95.73,0,0,1,0,69.82A8,8,0,0,1,338,168ZM179.66,152H332.34a79.74,79.74,0,0,0,0-48H179.66A79.74,79.74,0,0,0,179.66,152Z"/><path class="cls-3" d="M64,32l-1.86,7.46C55.47,66.14,30.38,72.54,32,72a46.09,46.09,0,0,1,30.14,32.54L64,112l1.86-7.46C72.53,77.86,97.62,71.46,96,72A46.09,46.09,0,0,1,65.86,39.46Z"/><path d="M64,120a8,8,0,0,1-7.76-6.06l-1.86-7.46A37.91,37.91,0,0,0,30.21,79.85,8,8,0,0,1,24,73.09a8.08,8.08,0,0,1,6.2-8.88c2.25-.75,19.25-7,24.18-26.69l1.86-7.46a8,8,0,0,1,15.52,0l1.86,7.46A37.91,37.91,0,0,0,97.79,64.15,8,8,0,0,1,104,70.91a8.08,8.08,0,0,1-5.47,8.68,37.91,37.91,0,0,0-24.91,26.89l-1.86,7.46A8,8,0,0,1,64,120ZM49.27,72A53.69,53.69,0,0,1,64,88.17,53.66,53.66,0,0,1,78.73,72,53.69,53.69,0,0,1,64,55.83,53.66,53.66,0,0,1,49.27,72Zm44.2-7.56h0Z"/><path class="cls-3" d="M72,216l-1.86,7.46C63.47,250.14,38.38,256.54,40,256a46.09,46.09,0,0,1,30.14,32.54L72,296l1.86-7.46C80.53,261.86,105.62,255.46,104,256a46.09,46.09,0,0,1-30.14-32.54Z"/><path d="M72,304a8,8,0,0,1-7.76-6.06l-1.86-7.46a37.91,37.91,0,0,0-24.17-26.63A8,8,0,0,1,32,257.09a8.08,8.08,0,0,1,6.2-8.88c2.25-.75,19.25-7,24.18-26.69l1.86-7.46a8,8,0,0,1,15.52,0l1.86,7.46a37.91,37.91,0,0,0,24.17,26.63,8,8,0,0,1,6.21,6.76,8.08,8.08,0,0,1-5.47,8.68,37.91,37.91,0,0,0-24.91,26.89l-1.86,7.46A8,8,0,0,1,72,304ZM57.27,256A53.69,53.69,0,0,1,72,272.17,53.66,53.66,0,0,1,86.73,256,53.69,53.69,0,0,1,72,239.83,53.66,53.66,0,0,1,57.27,256Zm44.2-7.56h0Z"/><path class="cls-3" d="M480,170.12l-1.86,7.46c-6.67,26.68-31.76,33.08-30.14,32.54a46.09,46.09,0,0,1,30.14,32.54l1.86,7.46,1.86-7.46c6.67-26.68,31.76-33.08,30.14-32.54a46.09,46.09,0,0,1-30.14-32.54Z"/><path d="M480,258.12a8,8,0,0,1-7.76-6.06l-1.86-7.46A37.93,37.93,0,0,0,446.21,218a8,8,0,0,1-6.21-6.76,8.08,8.08,0,0,1,6.2-8.88c2.25-.75,19.25-7,24.18-26.69l1.86-7.46a8,8,0,0,1,15.52,0l1.86,7.46a37.91,37.91,0,0,0,24.17,26.63A8,8,0,0,1,520,209a8.08,8.08,0,0,1-5.47,8.68,37.91,37.91,0,0,0-24.91,26.89l-1.86,7.46A8,8,0,0,1,480,258.12Zm-14.73-48A53.69,53.69,0,0,1,480,226.29a53.66,53.66,0,0,1,14.73-16.14A53.69,53.69,0,0,1,480,194,53.59,53.59,0,0,1,465.27,210.09Zm44.2-7.56h0Z"/></g></svg>