<svg xmlns="http://www.w3.org/2000/svg" viewBox="0 0 512 512"><defs><style>.cls-1{fill:#c1d1f7;}.cls-2{fill:#a8edfd;}.cls-3{fill:#8bd4de;}.cls-4{fill:#eaf2ff;}.cls-5{fill:#ead590;}</style></defs><title>12. Disco Ball</title><g id="_12._Disco_Ball" data-name="12. Disco Ball"><path class="cls-1" d="M232,88h48a16,16,0,0,1,16,16v24a0,0,0,0,1,0,0H216a0,0,0,0,1,0,0V104A16,16,0,0,1,232,88Z"/><path d="M296,136H216a8,8,0,0,1-8-8V104a24,24,0,0,1,24-24h48a24,24,0,0,1,24,24v24A8,8,0,0,1,296,136Zm-72-16h64V104a8,8,0,0,0-8-8H232a8,8,0,0,0-8,8Z"/><circle class="cls-2" cx="256" cy="264" r="144"/><path class="cls-3" d="M256,384A144,144,0,0,1,112.5,252c-7,84.21,59.39,156,143.5,156s150.45-71.75,143.5-156A144,144,0,0,1,256,384Z"/><path d="M385,336a8,8,0,0,1-7.16-11.56A134.6,134.6,0,0,0,392,264c0-75-61-136-136-136a136,136,0,0,0-121.87,75.56,8,8,0,0,1-14.33-7.12A152,152,0,0,1,256,112c83.81,0,152,68.19,152,152a150.56,150.56,0,0,1-15.8,67.56A8,8,0,0,1,385,336Z"/><path d="M256,416c-97.4,0-169.85-90.49-148.23-185.77a8,8,0,0,1,15.6,3.54C104,319.08,168.92,400,256,400a136.17,136.17,0,0,0,101.37-45.34,8,8,0,1,1,11.92,10.68A152.24,152.24,0,0,1,256,416Z"/><path d="M253.48,415.59a159.69,159.69,0,0,1,0-303.18,7.9,7.9,0,0,1,5,0,159.69,159.69,0,0,1,0,303.18A7.9,7.9,0,0,1,253.48,415.59ZM256,128.46a143.68,143.68,0,0,0,0,271.08,143.68,143.68,0,0,0,0-271.08Z"/><path d="M250.08,413.38c-77.59-85.5-77.47-213.39,0-298.76a8,8,0,0,1,11.84,0c77.58,85.5,77.48,213.38,0,298.76A8,8,0,0,1,250.08,413.38ZM256,132.19c-64.14,77-64.05,186.72,0,263.62C320.14,318.8,320.05,209.09,256,132.19Z"/><circle class="cls-4" cx="256" cy="72" r="16"/><path d="M256,96a24,24,0,1,1,24-24A24,24,0,0,1,256,96Zm0-32a8,8,0,1,0,8,8A8,8,0,0,0,256,64Z"/><path d="M256,64a8,8,0,0,1-8-8V8a8,8,0,0,1,16,0V56A8,8,0,0,1,256,64Z"/><path d="M448,272H432a8,8,0,0,1,0-16h16a8,8,0,0,1,0,16Z"/><path d="M496,272H480a8,8,0,0,1,0-16h16a8,8,0,0,1,0,16Z"/><path d="M380.45,147.55a8,8,0,0,1-5.66-13.66l11.32-11.31a8,8,0,0,1,11.31,11.31l-11.31,11.32A8,8,0,0,1,380.45,147.55Z"/><path d="M414.39,113.61A8,8,0,0,1,408.74,100l11.31-11.31A8,8,0,1,1,431.36,100l-11.31,11.31A8,8,0,0,1,414.39,113.61Z"/><path d="M131.55,147.55a8,8,0,0,1-5.66-2.34l-11.31-11.32a8,8,0,1,1,11.31-11.31l11.32,11.31A8,8,0,0,1,131.55,147.55Z"/><path d="M97.61,113.61A8,8,0,0,1,92,111.26L80.64,100A8,8,0,0,1,92,88.64L103.26,100A8,8,0,0,1,97.61,113.61Z"/><path d="M80,272H64a8,8,0,0,1,0-16H80a8,8,0,0,1,0,16Z"/><path d="M32,272H16a8,8,0,0,1,0-16H32a8,8,0,0,1,0,16Z"/><path d="M120.24,407.76a8,8,0,0,1-5.66-13.65l11.31-11.32a8,8,0,0,1,11.32,11.32l-11.32,11.31A8,8,0,0,1,120.24,407.76Z"/><path d="M86.29,441.71a8,8,0,0,1-5.65-13.66L92,416.74a8,8,0,1,1,11.31,11.31L92,439.36A8,8,0,0,1,86.29,441.71Z"/><path d="M256,464a8,8,0,0,1-8-8V440a8,8,0,0,1,16,0v16A8,8,0,0,1,256,464Z"/><path d="M256,512a8,8,0,0,1-8-8V488a8,8,0,0,1,16,0v16A8,8,0,0,1,256,512Z"/><path d="M391.76,407.76a8,8,0,0,1-5.65-2.34l-11.32-11.31a8,8,0,0,1,11.32-11.32l11.31,11.32A8,8,0,0,1,391.76,407.76Z"/><path d="M425.71,441.71a8,8,0,0,1-5.66-2.35l-11.31-11.31a8,8,0,1,1,11.31-11.31l11.31,11.31A8,8,0,0,1,425.71,441.71Z"/><path d="M385,208H127a8,8,0,0,1,0-16H385a8,8,0,0,1,0,16Z"/><path d="M385,336H127a8,8,0,0,1,0-16H385a8,8,0,0,1,0,16Z"/><path d="M400,272H112a8,8,0,0,1,0-16H400a8,8,0,0,1,0,16Z"/><path d="M256,416a8,8,0,0,1-8-8V120a8,8,0,0,1,16,0V408A8,8,0,0,1,256,416Z"/><path class="cls-5" d="M40,120l-1.86,7.46C31.47,154.14,6.38,160.54,8,160a46.09,46.09,0,0,1,30.14,32.54L40,200l1.86-7.46C48.53,165.86,73.62,159.46,72,160a46.09,46.09,0,0,1-30.14-32.54Z"/><path d="M40,208a8,8,0,0,1-7.76-6.06l-1.87-7.46A37.88,37.88,0,0,0,6.22,167.85,8,8,0,0,1,0,161.09a8.07,8.07,0,0,1,6.2-8.88c2.25-.75,19.24-7,24.17-26.69l1.87-7.46a8,8,0,0,1,15.52,0l1.87,7.46a37.88,37.88,0,0,0,24.15,26.63A8,8,0,0,1,80,158.91a8.08,8.08,0,0,1-5.47,8.68,37.86,37.86,0,0,0-24.9,26.89l-1.87,7.46A8,8,0,0,1,40,208ZM25.27,160A53.69,53.69,0,0,1,40,176.17,53.56,53.56,0,0,1,54.73,160,53.69,53.69,0,0,1,40,143.83,53.56,53.56,0,0,1,25.27,160Zm44.2-7.56h0Z"/><path class="cls-5" d="M344,424l-1.86,7.46C335.47,458.14,310.38,464.54,312,464a46.09,46.09,0,0,1,30.14,32.54L344,504l1.86-7.46c6.67-26.68,31.76-33.08,30.14-32.54a46.09,46.09,0,0,1-30.14-32.54Z"/><path d="M344,512a8,8,0,0,1-7.76-6.06l-1.87-7.46a37.88,37.88,0,0,0-24.15-26.63,8,8,0,0,1,0-15.64c2.25-.75,19.24-7,24.17-26.69l1.87-7.46a8,8,0,0,1,15.52,0l1.87,7.46a37.88,37.88,0,0,0,24.15,26.63,8,8,0,0,1,6.22,6.76,8.08,8.08,0,0,1-5.47,8.68,37.86,37.86,0,0,0-24.9,26.89l-1.87,7.46A8,8,0,0,1,344,512Zm-14.73-48A53.69,53.69,0,0,1,344,480.17,53.56,53.56,0,0,1,358.73,464,53.69,53.69,0,0,1,344,447.83,53.56,53.56,0,0,1,329.27,464Zm44.2-7.56h0Z"/><path class="cls-5" d="M360,8l-1.86,7.46C351.47,42.14,326.38,48.54,328,48a46.09,46.09,0,0,1,30.14,32.54L360,88l1.86-7.46C368.53,53.86,393.62,47.46,392,48a46.09,46.09,0,0,1-30.14-32.54Z"/><path d="M360,96a8,8,0,0,1-7.76-6.06l-1.87-7.46a37.88,37.88,0,0,0-24.15-26.63,8,8,0,0,1,0-15.64c2.25-.75,19.24-7,24.17-26.69l1.87-7.46a8,8,0,0,1,15.52,0l1.87,7.46a37.88,37.88,0,0,0,24.15,26.63A8,8,0,0,1,400,46.91a8.08,8.08,0,0,1-5.47,8.68,37.86,37.86,0,0,0-24.9,26.89l-1.87,7.46A8,8,0,0,1,360,96ZM345.27,48A53.69,53.69,0,0,1,360,64.17,53.56,53.56,0,0,1,374.73,48,53.69,53.69,0,0,1,360,31.83,53.56,53.56,0,0,1,345.27,48Zm44.2-7.56h0Z"/></g></svg>