<svg xmlns="http://www.w3.org/2000/svg" viewBox="0 0 512 512"><defs><style>.cls-1{fill:#a8edfd;}.cls-2{fill:#8bd4de;}.cls-3{fill:#f4dcb5;}.cls-4{fill:#f6f6f6;}.cls-5{fill:#dcdcdc;}.cls-6{fill:#bbb;}.cls-7{fill:#5f79a5;}.cls-8{fill:#f6edc8;}.cls-9{fill:#cd4f5f;}.cls-10{fill:#b24654;}.cls-11{fill:#596060;}.cls-12{fill:#62acc7;}.cls-13{fill:#c3a3f3;}.cls-14{fill:#b1da7a;}.cls-15{fill:#6fc3e2;}</style></defs><title>19. Disc Jockey</title><g id="_19._Disc_Jockey" data-name="19. Disc Jockey"><path class="cls-1" d="M416,311v57H96V311a60,60,0,0,1,35.63-54.83L240,208h32l108.37,48.16A60,60,0,0,1,416,311Z"/><rect class="cls-2" x="96" y="344" width="320" height="24"/><path d="M416,376H96a8,8,0,0,1-8-8V336a8,8,0,0,1,16,0v24H408V311a52,52,0,0,0-30.88-47.52L270.3,216H241.7L134.88,263.47A51.71,51.71,0,0,0,105.65,298a8,8,0,0,1-15.5-4,67.66,67.66,0,0,1,38.23-45.15l108.37-48.16A7.9,7.9,0,0,1,240,200h32a7.9,7.9,0,0,1,3.25.69l108.37,48.16A68.07,68.07,0,0,1,424,311v57A8,8,0,0,1,416,376Z"/><path class="cls-3" d="M256,264a32,32,0,0,1-32-32V216h64v16A32,32,0,0,1,256,264Z"/><path d="M256,272a40,40,0,0,1-40-40V216a8,8,0,0,1,8-8h64a8,8,0,0,1,8,8v16A40,40,0,0,1,256,272Zm-24-48v8a24,24,0,0,0,48,0v-8Z"/><rect class="cls-4" x="8" y="368" width="496" height="72"/><rect class="cls-5" x="8" y="416" width="496" height="24"/><path d="M504,448H8a8,8,0,0,1-8-8V368a8,8,0,0,1,8-8H504a8,8,0,0,1,8,8v72A8,8,0,0,1,504,448ZM16,432H496V376H16Z"/><rect class="cls-5" x="24" y="440" width="464" height="64"/><rect class="cls-6" x="24" y="480" width="464" height="24"/><path d="M24,512a8,8,0,0,1-8-8V440a8,8,0,0,1,8-8H488a8,8,0,0,1,0,16H32v56A8,8,0,0,1,24,512Z"/><path d="M488,512a8,8,0,0,1-8-8V440a8,8,0,0,1,16,0v64A8,8,0,0,1,488,512Z"/><rect class="cls-7" x="64" y="336" width="128" height="32"/><path d="M192,376H64a8,8,0,0,1-8-8V336a8,8,0,0,1,8-8H192a8,8,0,0,1,8,8v32A8,8,0,0,1,192,376ZM72,360H184V344H72Z"/><rect class="cls-7" x="320" y="336" width="128" height="32"/><path d="M448,376H320a8,8,0,0,1-8-8V336a8,8,0,0,1,8-8H448a8,8,0,0,1,8,8v32A8,8,0,0,1,448,376ZM328,360H440V344H328Z"/><path class="cls-8" d="M256,224a64,64,0,0,1-64-64V112H320v48A64,64,0,0,1,256,224Z"/><path class="cls-3" d="M256,200h0a64,64,0,0,1-64-64v24a64,64,0,0,0,128,0V136A64,64,0,0,1,256,200Z"/><path d="M256,232a72.08,72.08,0,0,1-72-72V112a8,8,0,0,1,8-8H320a8,8,0,0,1,8,8v48A72.08,72.08,0,0,1,256,232ZM200,120v40a56,56,0,0,0,112,0V120Z"/><path class="cls-9" d="M168,112h24a0,0,0,0,1,0,0v64a0,0,0,0,1,0,0H168a16,16,0,0,1-16-16V128A16,16,0,0,1,168,112Z"/><path class="cls-10" d="M152,136v24a16,16,0,0,0,16,16h24V152H168A16,16,0,0,1,152,136Z"/><path d="M192,184H168a24,24,0,0,1-24-24V128a24,24,0,0,1,24-24h24a8,8,0,0,1,8,8v64A8,8,0,0,1,192,184Zm-24-64a8,8,0,0,0-8,8v32a8,8,0,0,0,8,8h16V120Z"/><path class="cls-9" d="M320,112h24a16,16,0,0,1,16,16v32a16,16,0,0,1-16,16H320a0,0,0,0,1,0,0V112A0,0,0,0,1,320,112Z"/><path class="cls-10" d="M344,152H320v24h24a16,16,0,0,0,16-16V136A16,16,0,0,1,344,152Z"/><path d="M344,184H320a8,8,0,0,1-8-8V112a8,8,0,0,1,8-8h24a24,24,0,0,1,24,24v32A24,24,0,0,1,344,184Zm-16-16h16a8,8,0,0,0,8-8V128a8,8,0,0,0-8-8H328Z"/><path d="M352,120a8,8,0,0,1-8-8v-8a88,88,0,0,0-176,0v8a8,8,0,0,1-16,0v-8a104,104,0,0,1,208,0v8A8,8,0,0,1,352,120Z"/><path class="cls-11" d="M256,40a64,64,0,0,0-64,64v8H320v-8A64,64,0,0,0,256,40Z"/><path d="M320,120H192a8,8,0,0,1-8-8v-8a72,72,0,0,1,144,0v8A8,8,0,0,1,320,120ZM200,104H312a56,56,0,0,0-112,0Z"/><polygon class="cls-12" points="320 408 192 408 176 440 336 440 320 408"/><path d="M336,448H176a8,8,0,0,1-7.16-11.58l16-32A8,8,0,0,1,192,400H320a8,8,0,0,1,7.16,4.42l16,32A8,8,0,0,1,336,448ZM188.94,432H323.06l-8-16H196.94Z"/><path d="M256,304a8,8,0,0,1-8-8V264a8,8,0,0,1,16,0v32A8,8,0,0,1,256,304Z"/><polygon class="cls-13" points="136 48 72 56 72 24 136 16 136 48"/><path d="M72,64a8,8,0,0,1-8-8V24a8,8,0,0,1,7-7.94l64-8A8,8,0,0,1,144,16V48a8,8,0,0,1-7,7.94C68.52,64.5,72.76,64,72,64Zm64-16h0ZM80,31.06V46.94l48-6V25.06Z"/><path d="M72,112a8,8,0,0,1-8-8V56a8,8,0,0,1,16,0v48A8,8,0,0,1,72,112Z"/><ellipse class="cls-13" cx="40" cy="104" rx="32" ry="24"/><path d="M40,136c-22.06,0-40-14.35-40-32S17.94,72,40,72s40,14.35,40,32S62.06,136,40,136Zm0-48c-13,0-24,7.33-24,16s11,16,24,16,24-7.33,24-16S53,88,40,88Z"/><polygon class="cls-14" points="504 160 424 168 424 136 504 128 504 160"/><path d="M424,176a8,8,0,0,1-8-8V136a8,8,0,0,1,7.2-8l80-8a8,8,0,0,1,8.8,8v32a8,8,0,0,1-7.2,8C419.07,176.53,424.62,176,424,176Zm80-16h0Zm-72-16.76v15.92l64-6.4V136.84Z"/><path d="M504,216a8,8,0,0,1-8-8V160a8,8,0,0,1,16,0v48A8,8,0,0,1,504,216Z"/><path d="M424,224a8,8,0,0,1-8-8V168a8,8,0,0,1,16,0v48A8,8,0,0,1,424,224Z"/><ellipse class="cls-14" cx="484" cy="208" rx="20" ry="16" transform="translate(-5.32 403.16) rotate(-45)"/><path d="M484,232c-15.44,0-28-10.77-28-24s12.56-24,28-24,28,10.77,28,24S499.44,232,484,232Zm0-32c-6.39,0-12,3.74-12,8s5.61,8,12,8,12-3.74,12-8S490.39,200,484,200Z"/><ellipse class="cls-14" cx="404" cy="216" rx="20" ry="16"/><path d="M404,240c-15.44,0-28-10.77-28-24s12.56-24,28-24,28,10.77,28,24S419.44,240,404,240Zm0-32c-6.39,0-12,3.74-12,8s5.61,8,12,8,12-3.74,12-8S410.39,208,404,208Z"/><rect class="cls-15" x="224" y="336" width="64" height="32"/><path d="M288,376H224a8,8,0,0,1-8-8V336a8,8,0,0,1,8-8h64a8,8,0,0,1,8,8v32A8,8,0,0,1,288,376Zm-56-16h48V344H232Z"/><path d="M64,416a8,8,0,1,1,8-8A8,8,0,0,1,64,416Z"/><path d="M96,416a8,8,0,1,1,8-8A8,8,0,0,1,96,416Z"/><path d="M128,416a8,8,0,1,1,8-8A8,8,0,0,1,128,416Z"/><path d="M384,416a8,8,0,1,1,8-8A8,8,0,0,1,384,416Z"/><path d="M416,416a8,8,0,1,1,8-8A8,8,0,0,1,416,416Z"/><path d="M448,416a8,8,0,1,1,8-8A8,8,0,0,1,448,416Z"/><path d="M236.42,195.38a8,8,0,1,1,7.16-14.31,27.9,27.9,0,0,0,24.84,0,8,8,0,1,1,7.16,14.31A44,44,0,0,1,236.42,195.38Z"/></g></svg>