<svg xmlns="http://www.w3.org/2000/svg" viewBox="0 0 512 512"><defs><style>.cls-1{fill:#596060;}.cls-2{fill:#4c5657;}.cls-3{fill:#cd4f5f;}.cls-4{fill:#b24654;}.cls-5{fill:#8f79e7;}.cls-6{fill:#7c6dcb;}.cls-7{fill:#c3a3f3;}.cls-8{fill:#aa83e5;}.cls-9{fill:#f6f6f6;}.cls-10{fill:#dcdcdc;}.cls-11{fill:#a8edfd;}.cls-12{fill:#8bd4de;}.cls-13{fill:#6fc3e2;}.cls-14{fill:#62acc7;}</style></defs><title>7. Karaoke</title><g id="_7._Karaoke" data-name="7. Karaoke"><path d="M99.39,512C58.55,512,38.05,462.64,67,433.72l7.38-7.38a8,8,0,0,1,11.32,11.32L78.28,445c-18.79,18.79-5.48,51,21.11,51a30,30,0,0,0,18.4-6.34l4.58-3.59A216.71,216.71,0,0,1,256,440.22a8,8,0,1,1,0,16,200.66,200.66,0,0,0-123.75,42.45l-4.58,3.59A46.09,46.09,0,0,1,99.39,512Z"/><circle class="cls-1" cx="376" cy="136" r="128"/><path class="cls-2" d="M473.91,53.56A128,128,0,0,1,262.09,194.44,128,128,0,1,0,473.91,53.56Z"/><path d="M376,272c-75,0-136-61-136-136A136.12,136.12,0,0,1,286,34a8,8,0,0,1,10.59,12A119.51,119.51,0,1,0,323.5,28.06a8,8,0,1,1-7-14.38A134.62,134.62,0,0,1,376,0c75,0,136,61,136,136S451,272,376,272Z"/><polygon class="cls-3" points="184 56 72 72 72 24 184 8 184 56"/><path d="M72,80a8,8,0,0,1-8-8V24a8,8,0,0,1,6.87-7.92l112-16A8,8,0,0,1,192,8V56a8,8,0,0,1-6.87,7.92C65.05,81.07,72.87,80,72,80Zm8-49.06V62.78l96-13.72V17.22ZM184,56h0Z"/><path d="M72,144a8,8,0,0,1-8-8V72a8,8,0,0,1,16,0v64A8,8,0,0,1,72,144Z"/><ellipse class="cls-3" cx="40" cy="136" rx="32" ry="24"/><path class="cls-4" d="M12.29,124A19.57,19.57,0,0,0,8,136c0,13.25,14.33,24,32,24,24.62,0,40-20.06,27.71-36C55.37,140,24.63,140,12.29,124Z"/><path d="M40,168c-22.06,0-40-14.35-40-32s17.94-32,40-32,40,14.35,40,32S62.06,168,40,168Zm0-48c-13,0-24,7.33-24,16s11,16,24,16,24-7.33,24-16S53,120,40,120Z"/><path d="M184,136a8,8,0,0,1-8-8V56a8,8,0,0,1,16,0v72A8,8,0,0,1,184,136Z"/><ellipse class="cls-3" cx="152" cy="128" rx="32" ry="24"/><path class="cls-4" d="M124.29,116A19.57,19.57,0,0,0,120,128c0,13.25,14.33,24,32,24,24.62,0,40-20.06,27.71-36C167.37,132,136.63,132,124.29,116Z"/><path d="M152,160c-22.06,0-40-14.35-40-32s17.94-32,40-32,40,14.35,40,32S174.06,160,152,160Zm0-48c-13,0-24,7.33-24,16s11,16,24,16,24-7.33,24-16S165,112,152,112Z"/><polygon class="cls-5" points="472 400 400 408 400 368 472 360 472 400"/><path d="M400,416a8,8,0,0,1-8-8V368a8,8,0,0,1,7.12-7.95l72-8A8,8,0,0,1,480,360v40a8,8,0,0,1-7.12,7.95C395.81,416.52,400.69,416,400,416Zm72-16h0Zm-64-24.84v23.9l56-6.22v-23.9Z"/><path d="M400,480a8,8,0,0,1-8-8V408a8,8,0,0,1,16,0v64A8,8,0,0,1,400,480Z"/><ellipse class="cls-5" cx="360" cy="472" rx="40" ry="32"/><path class="cls-6" d="M360,480c-16.79,0-31.15-8.27-37.08-20-10.75,21.23,9,44,37.08,44,28.41,0,47.68-23.05,37.08-44C391.15,471.73,376.79,480,360,480Z"/><path d="M360,512c-26.47,0-48-17.94-48-40s21.53-40,48-40,48,17.94,48,40S386.47,512,360,512Zm0-64c-17.65,0-32,10.77-32,24s14.35,24,32,24,32-10.77,32-24S377.65,448,360,448Z"/><rect class="cls-7" x="255.72" y="137.49" width="56.57" height="181.02" transform="translate(-78.04 267.6) rotate(-45)"/><rect class="cls-8" x="311.72" y="272.69" width="56.57" height="22.63" transform="translate(-101.23 323.6) rotate(-45)"/><path d="M322.34,317.66l-128-128a8,8,0,0,1,0-11.32l40-40a8,8,0,0,1,11.32,0l128,128a8,8,0,0,1,0,11.32l-40,40A8,8,0,0,1,322.34,317.66ZM211.31,184,328,300.69,356.69,272,240,155.31Z"/><rect class="cls-9" x="355.03" y="-7.08" width="33.94" height="294.16" transform="translate(9.96 304.05) rotate(-45)"/><rect class="cls-10" x="451.03" y="224.69" width="33.94" height="22.63" transform="translate(-29.8 400.05) rotate(-45)"/><path d="M458.34,261.66l-208-208a8,8,0,0,1,0-11.32l24-24a8,8,0,0,1,11.32,0l208,208a8,8,0,0,1,0,11.32l-24,24A8,8,0,0,1,458.34,261.66ZM267.31,48,464,244.69,476.69,232,280,35.31Z"/><path class="cls-11" d="M312,296C112.71,449.29,149.55,421,115.14,447.43a16,16,0,0,1-21.07-1.36L65.93,417.93a16,16,0,0,1-1.36-21.07C94.53,357.93,179.83,247,216,200Z"/><path class="cls-12" d="M296,280C96.71,433.29,133.55,405,99.14,431.43a16,16,0,0,1-21.07-1.36l16,16a16,16,0,0,0,21.07,1.36C154.07,417.47,265,332.18,312,296Z"/><path class="cls-13" d="M140.17,428.17l-25,19.26a16,16,0,0,1-21.07-1.36L65.93,417.93a16,16,0,0,1-1.36-21.07l19.26-25Z"/><path class="cls-14" d="M124.17,412.17l-25,19.26a16,16,0,0,1-21.07-1.36l16,16a16,16,0,0,0,21.07,1.36l25-19.26C124.35,412.35,124.07,412.17,124.17,412.17Z"/><path d="M88.41,451.72,60.28,423.59A24.06,24.06,0,0,1,58.22,392L209.66,195.12a8,8,0,0,1,12-.78l96,96a8,8,0,0,1-11.32,11.32L216.79,212.1,70.91,401.74a8,8,0,0,0,.68,10.54l28.13,28.13a8,8,0,0,0,10.54.68L275.92,313.66a8,8,0,1,1,9.76,12.68L120,453.78A24.06,24.06,0,0,1,88.41,451.72Z"/><path class="cls-9" d="M232,312l-16,16a22.63,22.63,0,0,1-32-32l16-16a22.63,22.63,0,0,1,32,32Z"/><path d="M200,342.61a30.62,30.62,0,0,1-21.66-52.27l16-16a30.63,30.63,0,0,1,43.32,43.32l-16,16A30.54,30.54,0,0,1,200,342.61Zm5.66-56.95-16,16a14.62,14.62,0,0,0,20.68,20.68l16-16a14.62,14.62,0,0,0-20.68-20.68Z"/><path d="M140.17,436.17a8,8,0,0,1-5.66-2.34L78.17,377.49a8,8,0,0,1,11.32-11.32l56.34,56.34A8,8,0,0,1,140.17,436.17Z"/></g></svg>