<svg xmlns="http://www.w3.org/2000/svg" viewBox="0 0 512 512"><defs><style>.cls-1{fill:#ead590;}.cls-2{fill:#f1cb66;}.cls-3{fill:#eaf2ff;}.cls-4{fill:#a8edfd;}.cls-5{fill:#96bf5b;}.cls-6{fill:#b1da7a;}.cls-7{fill:#cd4f5f;}.cls-8{fill:#8f79e7;}</style></defs><title>13. Popper Ball</title><g id="_13._Popper_Ball" data-name="13. Popper Ball"><path class="cls-1" d="M456.63,184.63A160,160,0,0,1,352,385.26L256,80A160,160,0,0,1,456.63,184.63Z"/><path class="cls-2" d="M451.65,171a160,160,0,0,1-107.41,189.6L352,385.26C441.26,357.19,488,258.44,451.65,171Z"/><path d="M344.37,387.66l-96-305.26a8,8,0,0,1,5.23-10A168.05,168.05,0,0,1,468.77,265.58a8,8,0,0,1-15.69-3.16,152,152,0,0,0-187-177L357.17,375a152,152,0,0,0,86.41-82.2,8,8,0,0,1,14.69,6.34A168,168,0,0,1,354.4,392.89,8,8,0,0,1,344.37,387.66Z"/><path class="cls-1" d="M256,80,160,385.26A160,160,0,0,1,256,80Z"/><path class="cls-2" d="M60,171.88C24.26,259.2,71.12,357.31,160,385.26L168,360A160,160,0,0,1,60,171.88Z"/><path d="M157.6,392.89C69.23,365.1,20,270.6,47.74,182.23A167.89,167.89,0,0,1,258.4,72.37a8,8,0,0,1,5.23,10l-42.77,136a8,8,0,1,1-15.26-4.8L245.91,85.43A151.93,151.93,0,0,0,63,187c-24.34,77.39,16.67,160,91.83,188L195.54,245.6a8,8,0,0,1,15.26,4.8L167.63,387.66A8,8,0,0,1,157.6,392.89Z"/><path class="cls-3" d="M385.12,223.89l4.8,15.27A80,80,0,0,1,337.6,339.47l-28.8-91.58Z"/><path d="M330,341.87l-28.8-91.58a8,8,0,0,1,5.23-10l76.31-24a8,8,0,0,1,10,5.23l4.8,15.27A88.1,88.1,0,0,1,340,347.1,8,8,0,0,1,330,341.87Zm-11.14-88.75L342.7,329a72.11,72.11,0,0,0,39.58-87.46l-2.4-7.64Z"/><path d="M172,347.1a88.1,88.1,0,0,1-57.55-110.34l4.8-15.27a8,8,0,0,1,10-5.23l76.32,24a8,8,0,0,1,5.23,10L182,341.87A8,8,0,0,1,172,347.1ZM132.12,233.92l-2.4,7.64A72.11,72.11,0,0,0,169.3,329l23.87-75.9Z"/><path class="cls-3" d="M203.2,247.89c-15.25,48.49-13.26,42.18-28.8,91.58a80,80,0,0,1-52.32-100.31l4.8-15.27Z"/><path d="M172,347.1a88,88,0,0,1-57.55-110.34l4.8-15.27a8,8,0,0,1,10-5.23l76.32,24a8,8,0,0,1,5.23,10L182,341.87A8,8,0,0,1,172,347.1ZM132.11,233.92l-2.4,7.64A72,72,0,0,0,169.3,329l23.87-75.9Z"/><rect class="cls-1" x="240" y="8" width="32" height="80"/><path d="M272,96H240a8,8,0,0,1-8-8V8a8,8,0,0,1,8-8h32a8,8,0,0,1,8,8V88A8,8,0,0,1,272,96ZM248,80h16V16H248Z"/><circle class="cls-4" cx="256" cy="80" r="32"/><path d="M256,120a40,40,0,1,1,40-40A40,40,0,0,1,256,120Zm0-64a24,24,0,1,0,24,24A24,24,0,0,0,256,56Z"/><path class="cls-3" d="M159,175.27l4.8-15.26a16,16,0,0,1,30.52,9.6l-4.8,15.26a16,16,0,1,1-30.52-9.6Z"/><path d="M174.2,204.08a24,24,0,0,1-22.88-31.21h0l4.8-15.26A24,24,0,0,1,201.91,172l-4.8,15.26A24.05,24.05,0,0,1,174.2,204.08Zm-7.62-26.41a8,8,0,1,0,15.26,4.8l4.8-15.26a8,8,0,0,0-11.33-9.49,7.92,7.92,0,0,0-3.93,4.69Z"/><path class="cls-3" d="M322.53,184.87l-4.8-15.26a16,16,0,1,1,30.52-9.6l4.8,15.26a16,16,0,1,1-30.52,9.6Z"/><path d="M337.76,204.08a24,24,0,0,1-22.87-16.81L310.09,172a24,24,0,0,1,45.79-14.4l4.8,15.26A24,24,0,0,1,337.76,204.08ZM333,156.81a8,8,0,0,0-7.64,10.4c5.17,16.43,4.8,15.16,4.8,15.26a8,8,0,0,0,15.26-4.8l-4.8-15.26A8,8,0,0,0,333,156.81Z"/><polygon class="cls-5" points="280 368 232 336 232 304 280 336 280 368"/><path d="M275.56,374.66l-48-32A8,8,0,0,1,224,336V304a8,8,0,0,1,12.44-6.66l48,32A8,8,0,0,1,288,336v32A8,8,0,0,1,275.56,374.66ZM240,331.72l32,21.33V340.28L240,319Z"/><polygon class="cls-5" points="280 440 232 408 232 376 280 408 280 440"/><path d="M275.56,446.66l-48-32A8,8,0,0,1,224,408V376a8,8,0,0,1,12.44-6.66l48,32A8,8,0,0,1,288,408v32A8,8,0,0,1,275.56,446.66ZM240,403.72l32,21.33V412.28L240,391Z"/><polygon class="cls-6" points="280 336 232 368 232 400 280 368 280 336"/><path d="M224,400V368a8,8,0,0,1,3.56-6.66l48-32A8,8,0,0,1,288,336v32a8,8,0,0,1-3.56,6.66l-48,32A8,8,0,0,1,224,400Zm16-27.72v12.77l32-21.33V351Z"/><polygon class="cls-6" points="280 408 232 440 232 472 280 440 280 408"/><path d="M224,472V440a8,8,0,0,1,3.56-6.66l48-32A8,8,0,0,1,288,408v32a8,8,0,0,1-3.56,6.66l-48,32A8,8,0,0,1,224,472Zm16-27.72v12.77l32-21.33V423Z"/><rect class="cls-7" x="109.46" y="462.54" width="40" height="32" transform="translate(-300.47 231.7) rotate(-45)"/><path d="M121,509.66,98.34,487a8,8,0,0,1,0-11.31l28.29-28.29a8,8,0,0,1,11.31,0l22.63,22.63a8,8,0,0,1,0,11.31l-28.29,28.29A8,8,0,0,1,121,509.66Zm-5.66-28.29,11.32,11.32,17-17L132.28,464.4Z"/><rect class="cls-8" x="360" y="448" width="32" height="32"/><path d="M392,488H360a8,8,0,0,1-8-8V448a8,8,0,0,1,8-8h32a8,8,0,0,1,8,8v32A8,8,0,0,1,392,488Zm-24-16h16V456H368Z"/><path d="M320,480a8,8,0,0,1-7.15-11.58l5.43-10.84-11.93-11.92a8,8,0,0,1-1.5-9.24l8-16a8,8,0,1,1,14.32,7.16l-5.43,10.84,11.93,11.92a8,8,0,0,1,1.5,9.24l-8,16A8,8,0,0,1,320,480Z"/><path d="M184,432a8,8,0,0,1-7.15-11.58l8-16a8,8,0,0,1,14.32,7.16l-8,16A8,8,0,0,1,184,432Z"/><path d="M272,280a8,8,0,0,1-7.59-5.47l-8-24a8,8,0,1,1,15.18-5.06l8,24A8,8,0,0,1,272,280Z"/><path d="M200,496a8,8,0,1,1,8-8A8,8,0,0,1,200,496Z"/><path class="cls-7" d="M186,302.65,174.4,339.47a79.79,79.79,0,0,1-49-43.53,48.94,48.94,0,0,1,52.35,1.25Z"/><path d="M172,347.1a88.11,88.11,0,0,1-53.87-47.88,8,8,0,0,1,3.18-10.14,57.21,57.21,0,0,1,60.91,1.45l8.2,5.46a8,8,0,0,1,3.19,9.06L182,341.87A8,8,0,0,1,172,347.1Zm-35.71-47.54a72.14,72.14,0,0,0,33,29.45l7.25-23-3.21-2.14A41.18,41.18,0,0,0,136.29,299.56Z"/><path class="cls-7" d="M326,302.65l11.58,36.82a79.79,79.79,0,0,0,49-43.53,48.94,48.94,0,0,0-52.35,1.25Z"/><path d="M330,341.87l-11.58-36.82a8,8,0,0,1,3.19-9.06l8.2-5.46a57.21,57.21,0,0,1,60.91-1.45,8,8,0,0,1,3.18,10.14A88.11,88.11,0,0,1,340,347.1,8,8,0,0,1,330,341.87ZM335.45,306l7.25,23a72.14,72.14,0,0,0,33-29.45,41.18,41.18,0,0,0-37,4.28Z"/></g></svg>