<svg xmlns="http://www.w3.org/2000/svg" viewBox="0 0 512 512"><defs><style>.cls-1{fill:#a6806f;}.cls-2{fill:#8d6d5f;}.cls-3{fill:#596060;}.cls-4{fill:#4c5657;}.cls-5{fill:#dcdcdc;}.cls-6{fill:#bbb;}.cls-7{fill:#f6f6f6;}.cls-8{fill:#b1da7a;}.cls-9{fill:#96bf5b;}</style></defs><title>28. Speaker</title><g id="_28._Speaker" data-name="28. Speaker"><path d="M64,368a64,64,0,0,1,0-128,8,8,0,0,1,0,16,48,48,0,0,0,0,96,8,8,0,0,1,0,16Z"/><rect class="cls-1" x="80" y="456" width="336" height="48"/><rect class="cls-2" x="80" y="480" width="336" height="24"/><path d="M416,512H80a8,8,0,0,1-8-8V456a8,8,0,0,1,8-8H416a8,8,0,0,1,8,8v48A8,8,0,0,1,416,512ZM88,496H408V464H88Z"/><path class="cls-3" d="M112,8H384a16,16,0,0,1,16,16V456a0,0,0,0,1,0,0H96a0,0,0,0,1,0,0V24A16,16,0,0,1,112,8Z"/><rect class="cls-4" x="96" y="432" width="304" height="24"/><path d="M400,464H96a8,8,0,0,1,0-16H392V72a8,8,0,0,1,16,0V456A8,8,0,0,1,400,464Z"/><path d="M96,432a8,8,0,0,1-8-8V24A24,24,0,0,1,112,0H384a24,24,0,0,1,24,24V40a8,8,0,0,1-16,0V24a8,8,0,0,0-8-8H112a8,8,0,0,0-8,8V424A8,8,0,0,1,96,432Z"/><path d="M128,48a8,8,0,1,1,8-8A8,8,0,0,1,128,48Z"/><path d="M368,48a8,8,0,1,1,8-8A8,8,0,0,1,368,48Z"/><path d="M128,432a8,8,0,1,1,8-8A8,8,0,0,1,128,432Z"/><path d="M368,432a8,8,0,1,1,8-8A8,8,0,0,1,368,432Z"/><circle class="cls-5" cx="248" cy="96" r="56"/><path class="cls-6" d="M248,128a56,56,0,0,1-54.7-44,56,56,0,1,0,109.4,0A56,56,0,0,1,248,128Z"/><path d="M248,160a64,64,0,1,1,64-64A64.07,64.07,0,0,1,248,160Zm0-112a48,48,0,1,0,48,48A48.05,48.05,0,0,0,248,48Z"/><circle class="cls-7" cx="248" cy="96" r="24"/><path class="cls-5" d="M227.22,84a24,24,0,1,0,41.56,0A24,24,0,0,1,227.22,84Z"/><path d="M248,128a32,32,0,1,1,32-32A32,32,0,0,1,248,128Zm0-48a16,16,0,1,0,16,16A16,16,0,0,0,248,80Z"/><circle class="cls-5" cx="248" cy="304" r="120"/><path class="cls-6" d="M248,400A120,120,0,0,1,128.6,292a120,120,0,1,0,238.8,0A120,120,0,0,1,248,400Z"/><path d="M248,432A128,128,0,1,1,376,304,128.14,128.14,0,0,1,248,432Zm0-240A112,112,0,1,0,360,304,112.12,112.12,0,0,0,248,192Z"/><circle class="cls-7" cx="248" cy="304" r="56"/><path class="cls-5" d="M248,336a56,56,0,0,1-54.7-44,56,56,0,1,0,109.4,0A56,56,0,0,1,248,336Z"/><path d="M248,368a64,64,0,1,1,64-64A64.07,64.07,0,0,1,248,368Zm0-112a48,48,0,1,0,48,48A48.05,48.05,0,0,0,248,256Z"/><path class="cls-8" d="M480,88,360,112V86.56a8,8,0,0,1,6.43-7.85l104-20.8A8,8,0,0,1,480,65.76Z"/><path d="M360,120a8,8,0,0,1-8-8V86.56a16,16,0,0,1,12.86-15.69l104-20.8A16,16,0,0,1,488,65.76V88a8,8,0,0,1-6.43,7.84C353.2,121.52,361.23,120,360,120ZM472,65.76,368,86.56v15.68l104-20.8ZM480,88h0Z"/><path d="M360,200a8,8,0,0,1-8-8V104a8,8,0,0,1,16,0v88A8,8,0,0,1,360,200Z"/><ellipse class="cls-8" cx="320" cy="200" rx="40" ry="32"/><path class="cls-9" d="M320,208c-16.79,0-31.15-8.27-37.08-20-10.75,21.23,9,44,37.08,44,28.41,0,47.68-23.05,37.08-44C351.15,199.73,336.79,208,320,208Z"/><path d="M320,240c-26.47,0-48-17.94-48-40s21.53-40,48-40,48,17.94,48,40S346.47,240,320,240Zm0-64c-17.64,0-32,10.77-32,24s14.36,24,32,24,32-10.77,32-24S337.64,176,320,176Z"/><path d="M480,184a8,8,0,0,1-8-8V88a8,8,0,0,1,16,0v88A8,8,0,0,1,480,184Z"/><ellipse class="cls-8" cx="440" cy="176" rx="40" ry="32"/><path class="cls-9" d="M440,184c-16.79,0-31.15-8.27-37.08-20-10.75,21.23,9,44,37.08,44,28.41,0,47.68-23.05,37.08-44C471.15,175.73,456.79,184,440,184Z"/><path d="M440,216c-26.47,0-48-17.94-48-40s21.53-40,48-40,48,17.94,48,40S466.47,216,440,216Zm0-64c-17.64,0-32,10.77-32,24s14.36,24,32,24,32-10.77,32-24S457.64,152,440,152Z"/><path d="M64,336a32,32,0,0,1,0-64,8,8,0,0,1,0,16,16,16,0,0,0,0,32,8,8,0,0,1,0,16Z"/><path d="M432,368a8,8,0,0,1,0-16,48,48,0,0,0,0-96,8,8,0,0,1,0-16,64,64,0,0,1,0,128Z"/><path d="M432,336a8,8,0,0,1,0-16,16,16,0,0,0,0-32,8,8,0,0,1,0-16,32,32,0,0,1,0,64Z"/></g></svg>